<svg id="Layer_1" data-name="Layer 1" xmlns="http://www.w3.org/2000/svg" viewBox="0 0 1096 580.08"><defs><style>.cls-1{fill:none;stroke-width:4px;}.cls-1,.cls-3{stroke:#004358;stroke-miterlimit:10;}.cls-2,.cls-3,.cls-4,.cls-9{fill:#004358;}.cls-2,.cls-5{fill-rule:evenodd;}.cls-3{stroke-width:2px;}.cls-5{fill:#bedb39;}.cls-6{fill:#ffe11a;}.cls-7{fill:#fd7400;}.cls-8{fill:#1f8a70;}.cls-9{font-size:534.9px;font-family:Calibri-Light, Calibri;}</style></defs><title>mff_logo_2</title><polyline class="cls-1" points="283.37 256.92 166.2 81.17 35.02 430.13 283.37 256.92"/><polyline class="cls-2" points="283.37 256.92 166.2 81.17 35.02 430.13 283.37 256.92"/><polyline class="cls-3" points="282.1 256.92 541.9 421.21 461.03 172.23"/><line class="cls-3" x1="282.09" y1="256.92" x2="461.67" y2="171.59"/><path class="cls-4" d="M302.46,242.47a25.75,25.75,0,1,1,25.74-25.74A25.77,25.77,0,0,1,302.46,242.47Z" transform="translate(-21 40.83)"/><path class="cls-4" d="M302.46,192a24.75,24.75,0,1,1-24.75,24.75A24.78,24.78,0,0,1,302.46,192m0-2a26.75,26.75,0,1,0,26.74,26.75A26.75,26.75,0,0,0,302.46,190Z" transform="translate(-21 40.83)"/><path class="cls-4" d="M482,154.6a25.75,25.75,0,1,1,25.75-25.75A25.77,25.77,0,0,1,482,154.6Z" transform="translate(-21 40.83)"/><path class="cls-4" d="M482,104.11a24.75,24.75,0,1,1-24.74,24.74A24.77,24.77,0,0,1,482,104.11m0-2a26.75,26.75,0,1,0,26.75,26.74A26.74,26.74,0,0,0,482,102.11Z" transform="translate(-21 40.83)"/><path class="cls-4" d="M54.11,415.68a25.75,25.75,0,1,1,25.75-25.75A25.78,25.78,0,0,1,54.11,415.68Z" transform="translate(-21 40.83)"/><path class="cls-4" d="M54.11,365.19a24.75,24.75,0,1,1-24.74,24.74,24.77,24.77,0,0,1,24.74-24.74m0-2a26.75,26.75,0,1,0,26.75,26.74,26.74,26.74,0,0,0-26.75-26.74Z" transform="translate(-21 40.83)"/><path class="cls-4" d="M562.27,406.76A25.75,25.75,0,1,1,588,381,25.77,25.77,0,0,1,562.27,406.76Z" transform="translate(-21 40.83)"/><path class="cls-4" d="M562.27,356.27A24.75,24.75,0,1,1,537.52,381a24.78,24.78,0,0,1,24.75-24.75m0-2A26.75,26.75,0,1,0,589,381a26.75,26.75,0,0,0-26.74-26.75Z" transform="translate(-21 40.83)"/><path class="cls-4" d="M185.29,66.72A25.75,25.75,0,1,1,211,41,25.78,25.78,0,0,1,185.29,66.72Z" transform="translate(-21 40.83)"/><path class="cls-4" d="M185.29,16.23A24.75,24.75,0,1,1,160.55,41a24.77,24.77,0,0,1,24.74-24.75m0-2A26.75,26.75,0,1,0,212,41a26.75,26.75,0,0,0-26.74-26.75Z" transform="translate(-21 40.83)"/><polyline class="cls-1" points="293.56 251.83 176.39 76.08 45.21 425.03 293.56 251.83"/><polyline class="cls-2" points="293.56 251.83 176.39 76.08 45.21 425.03 293.56 251.83"/><polyline class="cls-3" points="293.56 251.83 553.36 416.12 472.49 167.14"/><path class="cls-3" d="M492.86,125.67" transform="translate(-21 40.83)"/><path class="cls-4" d="M312.65,237.38a25.75,25.75,0,1,1,25.74-25.75A25.78,25.78,0,0,1,312.65,237.38Z" transform="translate(-21 40.83)"/><path class="cls-4" d="M312.65,186.89a24.75,24.75,0,1,1-24.75,24.75,24.77,24.77,0,0,1,24.75-24.75m0-2a26.75,26.75,0,1,0,26.74,26.75,26.75,26.75,0,0,0-26.74-26.75Z" transform="translate(-21 40.83)"/><path class="cls-4" d="M492.22,149.5A25.75,25.75,0,1,1,518,123.76,25.77,25.77,0,0,1,492.22,149.5Z" transform="translate(-21 40.83)"/><path class="cls-4" d="M492.22,99a24.75,24.75,0,1,1-24.75,24.75A24.77,24.77,0,0,1,492.22,99m0-2A26.75,26.75,0,1,0,519,123.76,26.75,26.75,0,0,0,492.22,97Z" transform="translate(-21 40.83)"/><path class="cls-4" d="M64.3,410.58a25.74,25.74,0,1,1,25.75-25.74A25.77,25.77,0,0,1,64.3,410.58Z" transform="translate(-21 40.83)"/><path class="cls-4" d="M64.3,360.1a24.75,24.75,0,1,1-24.74,24.74A24.77,24.77,0,0,1,64.3,360.1m0-2a26.75,26.75,0,1,0,26.75,26.74A26.74,26.74,0,0,0,64.3,358.1Z" transform="translate(-21 40.83)"/><path class="cls-4" d="M572.45,401.67a25.75,25.75,0,1,1,25.75-25.75A25.78,25.78,0,0,1,572.45,401.67Z" transform="translate(-21 40.83)"/><path class="cls-4" d="M572.45,351.18a24.75,24.75,0,1,1-24.74,24.75,24.77,24.77,0,0,1,24.74-24.75m0-2a26.75,26.75,0,1,0,26.75,26.75,26.74,26.74,0,0,0-26.75-26.75Z" transform="translate(-21 40.83)"/><path class="cls-4" d="M195.48,61.63a25.75,25.75,0,1,1,25.74-25.75A25.78,25.78,0,0,1,195.48,61.63Z" transform="translate(-21 40.83)"/><path class="cls-4" d="M195.48,11.14a24.75,24.75,0,1,1-24.75,24.74,24.77,24.77,0,0,1,24.75-24.74m0-2a26.75,26.75,0,1,0,26.74,26.74A26.75,26.75,0,0,0,195.48,9.14Z" transform="translate(-21 40.83)"/><polyline class="cls-5" points="277 260.74 159.83 84.99 28.66 433.95 277 260.74"/><polyline class="cls-6" points="275.73 260.74 535.53 425.03 454.66 176.05"/><circle class="cls-7" cx="275.09" cy="261.38" r="26.74"/><circle class="cls-8" cx="454.66" cy="173.5" r="26.74"/><circle class="cls-8" cx="26.74" cy="434.59" r="26.74"/><circle class="cls-8" cx="534.9" cy="425.67" r="26.74"/><circle class="cls-8" cx="157.92" cy="85.63" r="26.74"/><text class="cls-9" transform="translate(601.68 436.43)">FF</text></svg>