<?xml version="1.0" encoding="utf-8"?>
<!-- Generator: Adobe Illustrator 22.0.1, SVG Export Plug-In . SVG Version: 6.00 Build 0)  -->
<svg version="1.1" id="Layer_1" xmlns="http://www.w3.org/2000/svg" xmlns:xlink="http://www.w3.org/1999/xlink" x="0px" y="0px"
	 viewBox="0 0 1096 580.1" style="enable-background:new 0 0 1096 580.1;" xml:space="preserve">
<style type="text/css">
	.st0{fill:none;stroke:#004358;stroke-width:4;stroke-miterlimit:10;}
	.st1{fill:#004358;}
	.st2{fill:#004358;stroke:#004358;stroke-width:2;stroke-miterlimit:10;}
	.st3{fill:none;stroke:#004358;stroke-width:2;stroke-miterlimit:10;}
	.st4{fill:#BEDB39;}
	.st5{fill:#FFE11A;}
	.st6{fill:#FD7400;}
	.st7{fill:#1F8A70;}
	.st8{enable-background:new    ;}
</style>
<title>mff_logo_2</title>
<polyline class="st0" points="283.4,256.9 166.2,81.2 35,430.1 283.4,256.9 "/>
<polyline class="st1" points="283.4,256.9 166.2,81.2 35,430.1 283.4,256.9 "/>
<polyline class="st2" points="282.1,256.9 541.9,421.2 461,172.2 "/>
<line class="st3" x1="282.1" y1="256.9" x2="461.7" y2="171.6"/>
<path class="st1" d="M281.5,283.3c-14.2,0-25.8-11.5-25.8-25.7c0-14.2,11.5-25.8,25.7-25.8c14.2,0,25.8,11.5,25.8,25.7c0,0,0,0,0,0
	C307.2,271.8,295.7,283.3,281.5,283.3z"/>
<path class="st1" d="M281.5,232.8c13.7,0,24.8,11.1,24.8,24.7c0,13.7-11.1,24.8-24.8,24.8s-24.8-11.1-24.8-24.8l0,0
	C256.7,243.9,267.8,232.8,281.5,232.8 M281.5,230.8c-14.8,0-26.8,12-26.8,26.7c0,14.8,12,26.8,26.7,26.8s26.8-12,26.8-26.7
	c0,0,0,0,0,0C308.2,242.8,296.2,230.8,281.5,230.8z"/>
<path class="st1" d="M461,195.4c-14.2,0-25.8-11.5-25.8-25.8s11.5-25.8,25.8-25.8s25.8,11.5,25.8,25.8
	C486.7,183.9,475.2,195.4,461,195.4z"/>
<path class="st1" d="M461,144.9c13.7,0,24.8,11.1,24.8,24.7s-11.1,24.8-24.7,24.8s-24.8-11.1-24.8-24.7c0,0,0,0,0,0
	C436.3,156,447.3,145,461,144.9 M461,142.9c-14.8,0-26.8,12-26.8,26.8s12,26.8,26.8,26.8s26.8-12,26.8-26.8c0,0,0,0,0,0
	C487.8,154.9,475.8,142.9,461,142.9C461,142.9,461,142.9,461,142.9z"/>
<path class="st1" d="M33.1,456.5c-14.2,0-25.8-11.5-25.8-25.8S18.9,405,33.1,405s25.8,11.5,25.8,25.8l0,0
	C58.8,445,47.3,456.5,33.1,456.5z"/>
<path class="st1" d="M33.1,406c13.7,0,24.8,11.1,24.8,24.7c0,13.7-11.1,24.8-24.7,24.8S8.4,444.4,8.4,430.8c0,0,0,0,0,0
	C8.4,417.1,19.5,406,33.1,406 M33.1,404c-14.8,0-26.7,12-26.7,26.8s12,26.8,26.7,26.8s26.8-12,26.8-26.8c0,0,0,0,0,0
	C59.9,416,47.9,404,33.1,404C33.1,404,33.1,404,33.1,404z"/>
<path class="st1" d="M541.3,447.6c-14.2,0-25.8-11.5-25.8-25.7c0-14.2,11.5-25.8,25.7-25.8c14.2,0,25.8,11.5,25.8,25.7c0,0,0,0,0,0
	C567,436,555.5,447.6,541.3,447.6z"/>
<path class="st1" d="M541.3,397.1c13.7,0,24.8,11.1,24.8,24.8c0,13.7-11.1,24.8-24.8,24.8c-13.7,0-24.8-11.1-24.8-24.8c0,0,0,0,0,0
	C516.5,408.2,527.6,397.1,541.3,397.1 M541.3,395.1c-14.8,0-26.8,12-26.8,26.7s12,26.8,26.7,26.8c14.8,0,26.8-12,26.8-26.7
	c0,0,0,0,0,0C568,407.1,556,395.1,541.3,395.1L541.3,395.1z"/>
<path class="st1" d="M164.3,107.5c-14.2,0-25.8-11.5-25.8-25.7s11.5-25.8,25.7-25.8c14.2,0,25.8,11.5,25.8,25.7c0,0,0,0,0,0.1
	C190,96,178.5,107.5,164.3,107.5z"/>
<path class="st1" d="M164.3,57.1c13.7,0,24.8,11.1,24.8,24.7s-11.1,24.8-24.7,24.8c-13.7,0-24.7-11.1-24.8-24.7
	C139.6,68.2,150.6,57.1,164.3,57.1 M164.3,55.1c-14.8,0-26.8,11.9-26.8,26.7s11.9,26.8,26.7,26.8S191,96.6,191,81.9c0,0,0,0,0,0
	C191,67.1,179,55.1,164.3,55.1L164.3,55.1z"/>
<polyline class="st0" points="293.6,251.8 176.4,76.1 45.2,425 293.6,251.8 "/>
<polyline class="st1" points="293.6,251.8 176.4,76.1 45.2,425 293.6,251.8 "/>
<polyline class="st2" points="293.6,251.8 553.4,416.1 472.5,167.1 "/>
<path class="st2" d="M471.9,166.5"/>
<path class="st1" d="M291.6,278.2c-14.2,0-25.8-11.5-25.8-25.7s11.5-25.8,25.7-25.8c14.2,0,25.8,11.5,25.8,25.7c0,0,0,0,0,0
	C317.4,266.7,305.9,278.2,291.6,278.2z"/>
<path class="st1" d="M291.6,227.7c13.7,0,24.8,11.1,24.8,24.8c0,13.7-11.1,24.8-24.8,24.8s-24.8-11.1-24.8-24.8l0,0
	C266.9,238.8,278,227.7,291.6,227.7 M291.6,225.7c-14.8,0-26.8,12-26.8,26.7s12,26.8,26.7,26.8c14.8,0,26.8-12,26.8-26.7
	c0,0,0,0,0,0C318.4,237.7,306.4,225.7,291.6,225.7z"/>
<path class="st1" d="M471.2,190.3c-14.2,0-25.7-11.6-25.7-25.8s11.6-25.7,25.8-25.7c14.2,0,25.7,11.5,25.7,25.8
	C497,178.8,485.4,190.3,471.2,190.3z"/>
<path class="st1" d="M471.2,139.8c13.7,0,24.7,11.1,24.7,24.8s-11.1,24.8-24.7,24.8s-24.8-11.1-24.8-24.8l0,0
	C446.5,150.9,457.6,139.8,471.2,139.8 M471.2,137.8c-14.8,0-26.7,12-26.7,26.8s12,26.7,26.8,26.7c14.8,0,26.7-12,26.7-26.7
	C498,149.8,486,137.8,471.2,137.8C471.2,137.8,471.2,137.8,471.2,137.8z"/>
<path class="st1" d="M43.3,451.4c-14.2,0-25.7-11.5-25.7-25.8c0-14.2,11.5-25.7,25.7-25.7c14.2,0,25.7,11.5,25.7,25.7
	C69,439.9,57.5,451.4,43.3,451.4z"/>
<path class="st1" d="M43.3,400.9c13.7,0,24.8,11.1,24.8,24.7c0,13.7-11.1,24.8-24.7,24.8s-24.8-11.1-24.8-24.7c0,0,0,0,0,0
	C18.6,412,29.6,400.9,43.3,400.9 M43.3,398.9c-14.8,0-26.8,12-26.8,26.8s12,26.8,26.8,26.8s26.8-12,26.8-26.8c0,0,0,0,0,0
	C70,410.9,58.1,398.9,43.3,398.9C43.3,398.9,43.3,398.9,43.3,398.9z"/>
<path class="st1" d="M551.5,442.5c-14.2,0-25.8-11.5-25.8-25.8s11.5-25.8,25.8-25.8s25.8,11.5,25.8,25.8l0,0
	C577.2,431,565.7,442.5,551.5,442.5z"/>
<path class="st1" d="M551.5,392c13.7,0,24.8,11.1,24.8,24.7s-11.1,24.8-24.7,24.8s-24.8-11.1-24.8-24.7c0,0,0,0,0,0
	C526.7,403.1,537.8,392,551.5,392 M551.5,390c-14.8,0-26.8,12-26.8,26.8s12,26.8,26.8,26.8s26.8-12,26.8-26.8
	C578.2,402,566.2,390,551.5,390C551.5,390,551.5,390,551.5,390z"/>
<path class="st1" d="M174.5,102.5c-14.2,0-25.8-11.5-25.8-25.7S160.2,51,174.5,51s25.8,11.5,25.8,25.7c0,0,0,0,0,0
	C200.2,90.9,188.7,102.4,174.5,102.5z"/>
<path class="st1" d="M174.5,52c13.7,0,24.8,11.1,24.8,24.8s-11.1,24.8-24.8,24.8s-24.8-11.1-24.8-24.8c0,0,0,0,0,0
	C149.7,63,160.8,52,174.5,52 M174.5,50c-14.8,0-26.8,12-26.8,26.7c0,14.8,12,26.8,26.7,26.8c14.8,0,26.8-12,26.8-26.7c0,0,0,0,0,0
	C201.2,61.9,189.2,50,174.5,50z"/>
<polyline class="st4" points="277,260.7 159.8,85 28.7,434 277,260.7 "/>
<polyline class="st5" points="275.7,260.7 535.5,425 454.7,176.1 "/>
<circle class="st6" cx="275.1" cy="261.4" r="26.7"/>
<circle class="st7" cx="454.7" cy="173.5" r="26.7"/>
<circle class="st7" cx="26.7" cy="434.6" r="26.7"/>
<circle class="st7" cx="534.9" cy="425.7" r="26.7"/>
<circle class="st7" cx="157.9" cy="85.6" r="26.7"/>
<g class="st8">
	<path class="st1" d="M822.1,113.1c0,2.3-0.2,4.3-0.5,6c-0.4,1.7-0.9,3.2-1.7,4.3c-0.8,1.1-1.7,2-2.7,2.6c-1,0.6-2.2,0.9-3.4,0.9
		H682.9v128H807c1.2,0,2.4,0.2,3.4,0.7c1,0.4,2,1.2,2.7,2.2s1.3,2.4,1.7,4.2c0.3,1.7,0.5,3.9,0.5,6.5c0,2.3-0.2,4.3-0.5,6
		c-0.4,1.7-0.9,3.2-1.7,4.3c-0.8,1.1-1.7,2-2.7,2.6c-1,0.6-2.2,0.9-3.4,0.9H682.9v148.9c0,1-0.3,2-0.8,2.9c-0.5,0.9-1.4,1.6-2.6,2.1
		c-1.2,0.5-2.8,1-4.8,1.3c-2,0.3-4.6,0.5-7.7,0.5c-3,0-5.5-0.2-7.6-0.5c-2.1-0.4-3.7-0.8-5-1.3c-1.2-0.5-2.1-1.2-2.6-2.1
		c-0.5-0.9-0.8-1.8-0.8-2.9V114.9c0-6.3,1.7-10.6,5-12.9c3.3-2.4,6.5-3.5,9.7-3.5h148.1c1.2,0,2.4,0.3,3.4,0.9c1,0.6,2,1.5,2.7,2.7
		c0.8,1.2,1.3,2.7,1.7,4.6C821.9,108.5,822.1,110.7,822.1,113.1z"/>
	<path class="st1" d="M1068.2,113.1c0,2.3-0.2,4.3-0.5,6c-0.4,1.7-0.9,3.2-1.7,4.3c-0.8,1.1-1.7,2-2.7,2.6c-1,0.6-2.2,0.9-3.4,0.9
		H928.9v128H1053c1.2,0,2.4,0.2,3.4,0.7c1,0.4,2,1.2,2.7,2.2c0.8,1,1.3,2.4,1.7,4.2c0.3,1.7,0.5,3.9,0.5,6.5c0,2.3-0.2,4.3-0.5,6
		c-0.4,1.7-0.9,3.2-1.7,4.3c-0.8,1.1-1.7,2-2.7,2.6c-1,0.6-2.2,0.9-3.4,0.9H928.9v148.9c0,1-0.3,2-0.8,2.9c-0.5,0.9-1.4,1.6-2.6,2.1
		c-1.2,0.5-2.8,1-4.8,1.3c-2,0.3-4.6,0.5-7.7,0.5c-3,0-5.5-0.2-7.6-0.5c-2.1-0.4-3.7-0.8-5-1.3c-1.2-0.5-2.1-1.2-2.6-2.1
		c-0.5-0.9-0.8-1.8-0.8-2.9V114.9c0-6.3,1.7-10.6,5-12.9c3.3-2.4,6.5-3.5,9.7-3.5h148.1c1.2,0,2.4,0.3,3.4,0.9c1,0.6,2,1.5,2.7,2.7
		c0.8,1.2,1.3,2.7,1.7,4.6C1068,108.5,1068.2,110.7,1068.2,113.1z"/>
</g>
</svg>
