<svg xmlns="http://www.w3.org/2000/svg" viewBox="0 0 1243 580.08"><defs><style>.cls-1{fill:none;stroke-width:4px;}.cls-1,.cls-3{stroke:#004358;stroke-miterlimit:10;}.cls-2,.cls-3,.cls-4,.cls-9{fill:#004358;}.cls-2,.cls-5{fill-rule:evenodd;}.cls-3{stroke-width:2px;}.cls-5{fill:#bedb39;}.cls-6{fill:#ffe11a;}.cls-7{fill:#fd7400;}.cls-8{fill:#1f8a70;}.cls-9{font-size:534.9px;font-family:Calibri-Light, Calibri;}</style></defs><title>Asset 1</title><g id="Layer_2" data-name="Layer 2"><g id="Layer_1-2" data-name="Layer 1"><polyline class="cls-1" points="283.37 256.92 166.2 81.17 35.02 430.13 283.37 256.92"/><polyline class="cls-2" points="283.37 256.92 166.2 81.17 35.02 430.13 283.37 256.92"/><polyline class="cls-3" points="282.1 256.92 541.9 421.21 461.03 172.23"/><line class="cls-3" x1="282.09" y1="256.92" x2="461.67" y2="171.59"/><path class="cls-4" d="M281.46,283.3a25.75,25.75,0,1,1,25.74-25.74A25.77,25.77,0,0,1,281.46,283.3Z"/><path class="cls-4" d="M281.46,232.81a24.75,24.75,0,1,1-24.75,24.75,24.78,24.78,0,0,1,24.75-24.75m0-2a26.75,26.75,0,1,0,26.74,26.75,26.75,26.75,0,0,0-26.74-26.75Z"/><path class="cls-4" d="M461,195.43a25.75,25.75,0,1,1,25.75-25.75A25.77,25.77,0,0,1,461,195.43Z"/><path class="cls-4" d="M461,144.94a24.75,24.75,0,1,1-24.74,24.74A24.77,24.77,0,0,1,461,144.94m0-2a26.75,26.75,0,1,0,26.75,26.74A26.74,26.74,0,0,0,461,142.94Z"/><path class="cls-4" d="M33.11,456.51a25.75,25.75,0,1,1,25.75-25.75A25.78,25.78,0,0,1,33.11,456.51Z"/><path class="cls-4" d="M33.11,406A24.75,24.75,0,1,1,8.37,430.76,24.77,24.77,0,0,1,33.11,406m0-2a26.75,26.75,0,1,0,26.75,26.74A26.74,26.74,0,0,0,33.11,404Z"/><path class="cls-4" d="M541.27,447.59A25.75,25.75,0,1,1,567,421.85,25.77,25.77,0,0,1,541.27,447.59Z"/><path class="cls-4" d="M541.27,397.1a24.75,24.75,0,1,1-24.75,24.75,24.78,24.78,0,0,1,24.75-24.75m0-2A26.75,26.75,0,1,0,568,421.85a26.75,26.75,0,0,0-26.74-26.75Z"/><path class="cls-4" d="M164.29,107.55A25.75,25.75,0,1,1,190,81.81,25.78,25.78,0,0,1,164.29,107.55Z"/><path class="cls-4" d="M164.29,57.06a24.75,24.75,0,1,1-24.74,24.75,24.77,24.77,0,0,1,24.74-24.75m0-2A26.75,26.75,0,1,0,191,81.81a26.75,26.75,0,0,0-26.74-26.75Z"/><polyline class="cls-1" points="293.56 251.83 176.39 76.08 45.21 425.03 293.56 251.83"/><polyline class="cls-2" points="293.56 251.83 176.39 76.08 45.21 425.03 293.56 251.83"/><polyline class="cls-3" points="293.56 251.83 553.36 416.12 472.49 167.14"/><path class="cls-4" d="M291.65,278.21a25.75,25.75,0,1,1,25.74-25.75A25.78,25.78,0,0,1,291.65,278.21Z"/><path class="cls-4" d="M291.65,227.72a24.75,24.75,0,1,1-24.75,24.75,24.77,24.77,0,0,1,24.75-24.75m0-2a26.75,26.75,0,1,0,26.74,26.75,26.75,26.75,0,0,0-26.74-26.75Z"/><path class="cls-4" d="M471.22,190.33A25.75,25.75,0,1,1,497,164.59,25.77,25.77,0,0,1,471.22,190.33Z"/><path class="cls-4" d="M471.22,139.84a24.75,24.75,0,1,1-24.75,24.75,24.77,24.77,0,0,1,24.75-24.75m0-2A26.75,26.75,0,1,0,498,164.59a26.75,26.75,0,0,0-26.74-26.75Z"/><path class="cls-4" d="M43.3,451.42a25.75,25.75,0,1,1,25.75-25.75A25.78,25.78,0,0,1,43.3,451.42Z"/><path class="cls-4" d="M43.3,400.93a24.75,24.75,0,1,1-24.74,24.74A24.77,24.77,0,0,1,43.3,400.93m0-2a26.75,26.75,0,1,0,26.75,26.74A26.74,26.74,0,0,0,43.3,398.93Z"/><path class="cls-4" d="M551.45,442.5a25.75,25.75,0,1,1,25.75-25.75A25.78,25.78,0,0,1,551.45,442.5Z"/><path class="cls-4" d="M551.45,392a24.75,24.75,0,1,1-24.74,24.75A24.77,24.77,0,0,1,551.45,392m0-2a26.75,26.75,0,1,0,26.75,26.75A26.74,26.74,0,0,0,551.45,390Z"/><path class="cls-4" d="M174.48,102.46a25.75,25.75,0,1,1,25.74-25.75A25.78,25.78,0,0,1,174.48,102.46Z"/><path class="cls-4" d="M174.48,52a24.75,24.75,0,1,1-24.75,24.74A24.77,24.77,0,0,1,174.48,52m0-2a26.75,26.75,0,1,0,26.74,26.74A26.75,26.75,0,0,0,174.48,50Z"/><polyline class="cls-5" points="277 260.74 159.83 84.99 28.66 433.95 277 260.74"/><polyline class="cls-6" points="275.73 260.74 535.53 425.03 454.66 176.05"/><circle class="cls-7" cx="275.09" cy="261.38" r="26.74"/><circle class="cls-8" cx="454.66" cy="173.5" r="26.74"/><circle class="cls-8" cx="26.74" cy="434.59" r="26.74"/><circle class="cls-8" cx="534.9" cy="425.67" r="26.74"/><circle class="cls-8" cx="157.92" cy="85.63" r="26.74"/><text class="cls-9" transform="translate(601.68 436.43)">FF</text></g></g></svg>