<?xml version="1.0" encoding="utf-8"?>
<!-- Generator: Adobe Illustrator 22.0.1, SVG Export Plug-In . SVG Version: 6.00 Build 0)  -->
<svg version="1.1" xmlns="http://www.w3.org/2000/svg" xmlns:xlink="http://www.w3.org/1999/xlink" x="0px" y="0px"
	 viewBox="0 0 1133 431" style="enable-background:new 0 0 1133 431;" xml:space="preserve">
<style type="text/css">
	.st0{fill:none;stroke:#004358;stroke-width:4;stroke-miterlimit:10;}
	.st1{fill-rule:evenodd;clip-rule:evenodd;fill:#004358;}
	.st2{fill:#004358;stroke:#004358;stroke-width:2;stroke-miterlimit:10;}
	.st3{fill:#004358;}
	.st4{fill-rule:evenodd;clip-rule:evenodd;fill:#BEDB39;}
	.st5{fill:#FFE11A;}
	.st6{fill:#FD7400;}
	.st7{fill:#1F8A70;}
	.st8{fill:none;}
	.st9{font-family:'InkFree';}
	.st10{font-size:500px;}
</style>
<g id="Layer_1">
	<g>
		<g>
			<g>
				<polyline class="st0" points="303.4,220.1 186.2,44.3 55,393.3 303.4,220.1 				"/>
				<polyline class="st1" points="303.4,220.1 186.2,44.3 55,393.3 303.4,220.1 				"/>
			</g>
			<polyline class="st2" points="302.1,220.1 561.9,384.4 481,135.4 			"/>
			<line class="st2" x1="302.1" y1="220.1" x2="481.7" y2="134.8"/>
			<g>
				<path class="st3" d="M301.5,246.5c-14.2,0-25.7-11.5-25.7-25.7s11.5-25.7,25.7-25.7s25.7,11.5,25.7,25.7
					S315.7,246.5,301.5,246.5z"/>
				<path class="st3" d="M301.5,196c13.6,0,24.7,11.1,24.7,24.7s-11.1,24.7-24.7,24.7s-24.7-11.1-24.7-24.7S287.8,196,301.5,196
					 M301.5,194c-14.8,0-26.7,12-26.7,26.7c0,14.8,12,26.7,26.7,26.7c14.8,0,26.7-12,26.7-26.7C328.2,206,316.2,194,301.5,194
					L301.5,194z"/>
			</g>
			<g>
				<path class="st3" d="M481,158.6c-14.2,0-25.7-11.5-25.7-25.7s11.5-25.7,25.7-25.7s25.7,11.5,25.7,25.7S495.2,158.6,481,158.6z"
					/>
				<path class="st3" d="M481,108.1c13.6,0,24.7,11.1,24.7,24.7c0,13.6-11.1,24.7-24.7,24.7s-24.7-11.1-24.7-24.7
					C456.3,119.2,467.4,108.1,481,108.1 M481,106.1c-14.8,0-26.7,12-26.7,26.7c0,14.8,12,26.7,26.7,26.7s26.7-12,26.7-26.7
					C507.8,118.1,495.8,106.1,481,106.1L481,106.1z"/>
			</g>
			<g>
				<path class="st3" d="M53.1,419.7c-14.2,0-25.7-11.5-25.7-25.7s11.5-25.7,25.7-25.7s25.7,11.5,25.7,25.7S67.3,419.7,53.1,419.7z"
					/>
				<path class="st3" d="M53.1,369.2c13.6,0,24.7,11.1,24.7,24.7s-11.1,24.7-24.7,24.7s-24.7-11.1-24.7-24.7S39.5,369.2,53.1,369.2
					 M53.1,367.2c-14.8,0-26.7,12-26.7,26.7c0,14.8,12,26.7,26.7,26.7s26.7-12,26.7-26.7C79.9,379.2,67.9,367.2,53.1,367.2
					L53.1,367.2z"/>
			</g>
			<g>
				<path class="st3" d="M561.3,410.8c-14.2,0-25.7-11.5-25.7-25.7s11.5-25.7,25.7-25.7S587,370.8,587,385S575.5,410.8,561.3,410.8z
					"/>
				<path class="st3" d="M561.3,360.3c13.6,0,24.7,11.1,24.7,24.7s-11.1,24.7-24.7,24.7s-24.7-11.1-24.7-24.7
					S547.6,360.3,561.3,360.3 M561.3,358.3c-14.8,0-26.7,12-26.7,26.7s12,26.7,26.7,26.7c14.8,0,26.7-12,26.7-26.7
					S576,358.3,561.3,358.3L561.3,358.3z"/>
			</g>
			<g>
				<path class="st3" d="M184.3,70.7c-14.2,0-25.7-11.5-25.7-25.7s11.5-25.7,25.7-25.7S210,30.8,210,45S198.5,70.7,184.3,70.7z"/>
				<path class="st3" d="M184.3,20.2c13.6,0,24.7,11.1,24.7,24.7s-11.1,24.7-24.7,24.7S159.5,58.6,159.5,45S170.6,20.2,184.3,20.2
					 M184.3,18.2c-14.8,0-26.7,12-26.7,26.7c0,14.8,12,26.7,26.7,26.7c14.8,0,26.7-12,26.7-26.7C211,30.2,199.1,18.2,184.3,18.2
					L184.3,18.2z"/>
			</g>
			<g>
				<polyline class="st0" points="313.6,215 196.4,39.2 65.2,388.2 313.6,215 				"/>
				<polyline class="st1" points="313.6,215 196.4,39.2 65.2,388.2 313.6,215 				"/>
			</g>
			<polyline class="st2" points="313.6,215 573.4,379.3 492.5,130.3 			"/>
			<path class="st2" d="M491.9,129.7"/>
			<g>
				<path class="st3" d="M311.6,241.4c-14.2,0-25.7-11.5-25.7-25.7c0-14.2,11.5-25.7,25.7-25.7s25.7,11.5,25.7,25.7
					C337.4,229.8,325.8,241.4,311.6,241.4z"/>
				<path class="st3" d="M311.6,190.9c13.6,0,24.7,11.1,24.7,24.7s-11.1,24.7-24.7,24.7s-24.7-11.1-24.7-24.7S298,190.9,311.6,190.9
					 M311.6,188.9c-14.8,0-26.7,12-26.7,26.7c0,14.8,12,26.7,26.7,26.7s26.7-12,26.7-26.7C338.4,200.9,326.4,188.9,311.6,188.9
					L311.6,188.9z"/>
			</g>
			<g>
				<path class="st3" d="M491.2,153.5c-14.2,0-25.7-11.5-25.7-25.7c0-14.2,11.5-25.7,25.7-25.7s25.7,11.5,25.7,25.7
					C517,142,505.4,153.5,491.2,153.5z"/>
				<path class="st3" d="M491.2,103c13.6,0,24.7,11.1,24.7,24.7s-11.1,24.7-24.7,24.7c-13.6,0-24.7-11.1-24.7-24.7
					S477.6,103,491.2,103 M491.2,101c-14.8,0-26.7,12-26.7,26.7s12,26.7,26.7,26.7s26.7-12,26.7-26.7S506,101,491.2,101L491.2,101z"
					/>
			</g>
			<g>
				<path class="st3" d="M63.3,414.6c-14.2,0-25.7-11.5-25.7-25.7c0-14.2,11.5-25.7,25.7-25.7S89,374.6,89,388.8
					C89,403,77.5,414.6,63.3,414.6z"/>
				<path class="st3" d="M63.3,364.1c13.6,0,24.7,11.1,24.7,24.7s-11.1,24.7-24.7,24.7s-24.7-11.1-24.7-24.7S49.7,364.1,63.3,364.1
					 M63.3,362.1c-14.8,0-26.7,12-26.7,26.7c0,14.8,12,26.7,26.7,26.7s26.7-12,26.7-26.7C90,374.1,78.1,362.1,63.3,362.1L63.3,362.1
					z"/>
			</g>
			<g>
				<path class="st3" d="M571.5,405.7c-14.2,0-25.7-11.5-25.7-25.7c0-14.2,11.5-25.7,25.7-25.7s25.7,11.5,25.7,25.7
					C597.2,394.1,585.6,405.7,571.5,405.7z"/>
				<path class="st3" d="M571.5,355.2c13.6,0,24.7,11.1,24.7,24.7c0,13.6-11.1,24.7-24.7,24.7s-24.7-11.1-24.7-24.7
					C546.7,366.3,557.8,355.2,571.5,355.2 M571.5,353.2c-14.8,0-26.7,12-26.7,26.7c0,14.8,12,26.7,26.7,26.7
					c14.8,0,26.7-12,26.7-26.7C598.2,365.2,586.2,353.2,571.5,353.2L571.5,353.2z"/>
			</g>
			<g>
				<path class="st3" d="M194.5,65.6c-14.2,0-25.7-11.5-25.7-25.7s11.5-25.7,25.7-25.7s25.7,11.5,25.7,25.7S208.7,65.6,194.5,65.6z"
					/>
				<path class="st3" d="M194.5,15.1c13.6,0,24.7,11.1,24.7,24.7s-11.1,24.7-24.7,24.7s-24.7-11.1-24.7-24.7S180.8,15.1,194.5,15.1
					 M194.5,13.1c-14.8,0-26.7,12-26.7,26.7c0,14.8,12,26.7,26.7,26.7s26.7-12,26.7-26.7C221.2,25.1,209.2,13.1,194.5,13.1
					L194.5,13.1z"/>
			</g>
			<g>
				<polyline class="st4" points="297,223.9 179.8,48.2 48.7,397.1 297,223.9 				"/>
			</g>
			<polyline class="st5" points="295.7,223.9 555.5,388.2 474.7,139.2 			"/>
			<g>
				<circle class="st6" cx="295.1" cy="224.6" r="26.7"/>
			</g>
			<g>
				<circle class="st7" cx="474.7" cy="136.7" r="26.7"/>
			</g>
			<g>
				<circle class="st7" cx="46.7" cy="397.8" r="26.7"/>
			</g>
			<g>
				<circle class="st7" cx="554.9" cy="388.8" r="26.7"/>
			</g>
			<g>
				<circle class="st7" cx="177.9" cy="48.8" r="26.7"/>
			</g>
		</g>
		<rect x="549" y="-41" class="st8" width="730" height="478"/>
		<text transform="matrix(1 0 0 1 549 337.4941)" class="st3 st9 st10">FF</text>
	</g>
</g>
<g id="Layer_2">
</g>
</svg>
